<mxfile host="app.diagrams.net" modified="2023-02-03T08:52:01.452Z" agent="5.0 (Windows NT 10.0; Win64; x64) AppleWebKit/537.36 (KHTML, like Gecko) Chrome/109.0.0.0 Safari/537.36" etag="LBQdD0Drnz6iPCNQ-QLf" version="20.8.14" type="github">
  <diagram name="第 1 页" id="WiLpMEd2AIX6fi3uBP8D">
    <mxGraphModel dx="1050" dy="525" grid="1" gridSize="10" guides="1" tooltips="1" connect="1" arrows="1" fold="1" page="1" pageScale="1" pageWidth="827" pageHeight="1169" math="0" shadow="0">
      <root>
        <mxCell id="0" />
        <mxCell id="1" parent="0" />
        <mxCell id="cxeB_qOB4m5upeijdOJv-1" style="edgeStyle=orthogonalEdgeStyle;rounded=0;orthogonalLoop=1;jettySize=auto;html=1;entryX=0.5;entryY=0;entryDx=0;entryDy=0;" edge="1" parent="1" source="cxeB_qOB4m5upeijdOJv-3" target="cxeB_qOB4m5upeijdOJv-5">
          <mxGeometry relative="1" as="geometry" />
        </mxCell>
        <mxCell id="cxeB_qOB4m5upeijdOJv-2" style="edgeStyle=orthogonalEdgeStyle;rounded=0;orthogonalLoop=1;jettySize=auto;html=1;entryX=0.5;entryY=0;entryDx=0;entryDy=0;" edge="1" parent="1" source="cxeB_qOB4m5upeijdOJv-3" target="cxeB_qOB4m5upeijdOJv-7">
          <mxGeometry relative="1" as="geometry" />
        </mxCell>
        <mxCell id="cxeB_qOB4m5upeijdOJv-3" value="网关" style="rounded=1;whiteSpace=wrap;html=1;fillColor=#dae8fc;strokeColor=#6c8ebf;" vertex="1" parent="1">
          <mxGeometry x="300" y="210" width="120" height="60" as="geometry" />
        </mxCell>
        <mxCell id="cxeB_qOB4m5upeijdOJv-18" style="edgeStyle=orthogonalEdgeStyle;rounded=0;orthogonalLoop=1;jettySize=auto;html=1;entryX=0.5;entryY=0;entryDx=0;entryDy=0;exitX=0.5;exitY=1;exitDx=0;exitDy=0;" edge="1" parent="1" source="cxeB_qOB4m5upeijdOJv-5" target="cxeB_qOB4m5upeijdOJv-15">
          <mxGeometry relative="1" as="geometry" />
        </mxCell>
        <mxCell id="cxeB_qOB4m5upeijdOJv-23" style="edgeStyle=orthogonalEdgeStyle;rounded=0;orthogonalLoop=1;jettySize=auto;html=1;dashed=1;strokeColor=#000000;exitX=0.25;exitY=1;exitDx=0;exitDy=0;" edge="1" parent="1" source="cxeB_qOB4m5upeijdOJv-5" target="cxeB_qOB4m5upeijdOJv-8">
          <mxGeometry relative="1" as="geometry" />
        </mxCell>
        <mxCell id="cxeB_qOB4m5upeijdOJv-5" value="前台服务 A" style="rounded=1;whiteSpace=wrap;html=1;fillColor=#fff2cc;strokeColor=#d6b656;" vertex="1" parent="1">
          <mxGeometry x="180" y="370" width="120" height="60" as="geometry" />
        </mxCell>
        <mxCell id="cxeB_qOB4m5upeijdOJv-37" style="edgeStyle=orthogonalEdgeStyle;rounded=0;orthogonalLoop=1;jettySize=auto;html=1;entryX=0.75;entryY=0;entryDx=0;entryDy=0;strokeColor=#000000;" edge="1" parent="1" source="cxeB_qOB4m5upeijdOJv-7" target="cxeB_qOB4m5upeijdOJv-15">
          <mxGeometry relative="1" as="geometry" />
        </mxCell>
        <mxCell id="cxeB_qOB4m5upeijdOJv-7" value="前台服务 B" style="whiteSpace=wrap;html=1;rounded=1;fillColor=#fff2cc;strokeColor=#d6b656;" vertex="1" parent="1">
          <mxGeometry x="420" y="370" width="120" height="60" as="geometry" />
        </mxCell>
        <mxCell id="cxeB_qOB4m5upeijdOJv-16" style="edgeStyle=orthogonalEdgeStyle;rounded=0;orthogonalLoop=1;jettySize=auto;html=1;entryX=0;entryY=0.5;entryDx=0;entryDy=0;dashed=1;" edge="1" parent="1" source="cxeB_qOB4m5upeijdOJv-8" target="cxeB_qOB4m5upeijdOJv-15">
          <mxGeometry relative="1" as="geometry">
            <mxPoint x="250" y="555" as="targetPoint" />
          </mxGeometry>
        </mxCell>
        <mxCell id="cxeB_qOB4m5upeijdOJv-8" value="中台服务 C（V1）" style="rounded=1;whiteSpace=wrap;html=1;fillColor=#eeeeee;strokeColor=#36393d;" vertex="1" parent="1">
          <mxGeometry x="150" y="525" width="120" height="60" as="geometry" />
        </mxCell>
        <mxCell id="cxeB_qOB4m5upeijdOJv-9" value="" style="endArrow=classic;html=1;rounded=0;entryX=0.5;entryY=0;entryDx=0;entryDy=0;startArrow=none;" edge="1" parent="1" target="cxeB_qOB4m5upeijdOJv-3">
          <mxGeometry width="50" height="50" relative="1" as="geometry">
            <mxPoint x="360" y="170" as="sourcePoint" />
            <mxPoint x="370" y="130" as="targetPoint" />
          </mxGeometry>
        </mxCell>
        <mxCell id="cxeB_qOB4m5upeijdOJv-10" value="流量" style="text;html=1;strokeColor=none;fillColor=none;align=center;verticalAlign=middle;whiteSpace=wrap;rounded=0;" vertex="1" parent="1">
          <mxGeometry x="330" y="130" width="60" height="30" as="geometry" />
        </mxCell>
        <mxCell id="cxeB_qOB4m5upeijdOJv-13" value="" style="endArrow=classic;html=1;rounded=0;exitX=0.5;exitY=1;exitDx=0;exitDy=0;dashed=1;" edge="1" parent="1">
          <mxGeometry width="50" height="50" relative="1" as="geometry">
            <mxPoint x="100" y="144.5" as="sourcePoint" />
            <mxPoint x="160" y="144.5" as="targetPoint" />
          </mxGeometry>
        </mxCell>
        <mxCell id="cxeB_qOB4m5upeijdOJv-14" value="版本迭代" style="text;html=1;strokeColor=none;fillColor=none;align=center;verticalAlign=middle;whiteSpace=wrap;rounded=0;" vertex="1" parent="1">
          <mxGeometry x="160" y="130" width="60" height="30" as="geometry" />
        </mxCell>
        <mxCell id="cxeB_qOB4m5upeijdOJv-15" value="中台服务 C（V2）" style="rounded=1;whiteSpace=wrap;html=1;fillColor=#e1d5e7;strokeColor=#9673a6;" vertex="1" parent="1">
          <mxGeometry x="330" y="525" width="120" height="60" as="geometry" />
        </mxCell>
        <mxCell id="cxeB_qOB4m5upeijdOJv-20" value="" style="shape=image;html=1;verticalAlign=top;verticalLabelPosition=bottom;labelBackgroundColor=#ffffff;imageAspect=0;aspect=fixed;image=https://cdn3.iconfinder.com/data/icons/flat-actions-icons-9/792/Tick_Mark_Dark-128.png" vertex="1" parent="1">
          <mxGeometry x="190" y="496" width="20" height="20" as="geometry" />
        </mxCell>
        <mxCell id="cxeB_qOB4m5upeijdOJv-28" value="" style="aspect=fixed;html=1;points=[];align=center;image;fontSize=12;image=img/lib/azure2/general/Globe_Error.svg;" vertex="1" parent="1">
          <mxGeometry x="370" y="500" width="13.58" height="16" as="geometry" />
        </mxCell>
      </root>
    </mxGraphModel>
  </diagram>
</mxfile>
